<?xml version="1.0" encoding="UTF-8"?>
<svg width="132px" height="140px" viewBox="0 0 132 140" version="1.1" xmlns="http://www.w3.org/2000/svg" xmlns:xlink="http://www.w3.org/1999/xlink">
    <!-- Generator: Sketch 63.1 (92452) - https://sketch.com -->
    <title>shield-check-solid</title>
    <desc>Created with Sketch.</desc>
    <g id="Login" stroke="none" stroke-width="1" fill="none" fill-rule="evenodd">
        <g id="Success-Create-Password" transform="translate(-585.000000, -174.000000)" fill="#3BD288" fill-rule="nonzero">
            <g id="shield-check-solid" transform="translate(585.000000, 174.000000)">
                <path d="M123.183594,22.8867187 L70.6835938,1.01171875 C67.4537568,-0.328148055 63.8235869,-0.328148055 60.59375,1.01171875 L8.09375,22.8867187 C3.19921875,24.9101562 0,29.6953125 0,35 C0,89.2773437 31.3085938,126.792969 60.5664062,138.988281 C63.7929688,140.328125 67.4296875,140.328125 70.65625,138.988281 C94.0898438,129.226562 131.25,95.5117187 131.25,35 C131.25,29.6953125 128.050781,24.9101562 123.183594,22.8867187 Z M110.277344,54.1132812 L59.9648437,104.425781 C58.2695312,106.121094 55.4804687,106.121094 53.7851562,104.425781 L25.3476562,75.9882812 C23.6523437,74.2929687 23.6523437,71.5039062 25.3476562,69.8085937 L31.5273437,63.6289062 C33.2226562,61.9335937 36.0117187,61.9335937 37.7070312,63.6289062 L56.875,82.796875 L97.9179688,41.7539062 C99.6132812,40.0585937 102.402344,40.0585937 104.097656,41.7539062 L110.277344,47.9335937 C112,49.65625 112,52.4179687 110.277344,54.1132812 L110.277344,54.1132812 Z" id="Shape"></path>
            </g>
        </g>
    </g>
</svg>